<svg width="20" height="18" viewBox="0 0 20 18" fill="none" xmlns="http://www.w3.org/2000/svg">
<path d="M11 0C9.1435 0 7.36301 0.7375 6.05025 2.05025C4.7375 3.36301 4 5.14348 4 7C4 8.8565 4.7375 10.637 6.05025 11.9497C7.36301 13.2625 9.1435 14 11 14C12.3261 14 13.5979 13.4732 14.5355 12.5355C15.4732 11.5979 16 10.3261 16 9C16 7.6739 15.4732 6.40215 14.5355 5.46447C13.5979 4.52678 12.3261 4 11 4C10.2044 4 9.4413 4.31607 8.8787 4.87868C8.3161 5.44129 8 6.20435 8 7C8 7.7956 8.3161 8.5587 8.8787 9.1213C9.4413 9.6839 10.2044 10 11 10C11.2652 10 11.5196 9.8946 11.7071 9.7071C11.8946 9.5196 12 9.2652 12 9C12 8.7348 11.8946 8.4804 11.7071 8.2929C11.5196 8.1054 11.2652 8 11 8C10.7348 8 10.4804 7.8946 10.2929 7.7071C10.1054 7.5196 10 7.2652 10 7C10 6.73478 10.1054 6.48043 10.2929 6.29289C10.4804 6.10536 10.7348 6 11 6C11.7956 6 12.5587 6.31607 13.1213 6.87868C13.6839 7.4413 14 8.2044 14 9C14 9.7956 13.6839 10.5587 13.1213 11.1213C12.5587 11.6839 11.7956 12 11 12C9.6739 12 8.4021 11.4732 7.46447 10.5355C6.52678 9.5979 6 8.3261 6 7C6 5.67392 6.52678 4.40215 7.46447 3.46447C8.4021 2.52678 9.6739 2 11 2C12.8565 2 14.637 2.7375 15.9497 4.05025C17.2625 5.36301 18 7.1435 18 9C18 10.8565 17.2625 12.637 15.9497 13.9497C14.637 15.2625 12.8565 16 11 16C8.6131 16 6.32387 15.0518 4.63604 13.364C2.94821 11.6761 2 9.3869 2 7C2 6.73478 1.89464 6.48043 1.70711 6.29289C1.51957 6.10536 1.26522 6 1 6C0.73478 6 0.48043 6.10536 0.29289 6.29289C0.10536 6.48043 0 6.73478 0 7C0 9.9174 1.15893 12.7153 3.22183 14.7782C5.28473 16.8411 8.0826 18 11 18C13.3869 18 15.6761 17.0518 17.364 15.364C19.0518 13.6761 20 11.3869 20 9C20 6.61305 19.0518 4.32387 17.364 2.63604C15.6761 0.94821 13.3869 0 11 0Z" fill="#00e190"/>
</svg>
